<svg width="102" height="108" viewBox="0 0 102 108" fill="none" xmlns="http://www.w3.org/2000/svg">
<path d="M50.7434 69.1755C42.7587 69.1755 36.3572 62.29 36.3572 53.8662C36.3572 45.4425 42.8275 38.557 50.7434 38.557C58.6592 38.557 65.1295 45.4425 65.1295 53.8662C65.1295 62.29 58.728 69.1755 50.7434 69.1755ZM101.336 48.226H70.4985L97.2059 31.818L91.9057 22.0758L65.1984 38.4838L80.617 10.0627L71.4622 4.4225L56.0435 32.8435V0.0274963H45.4432V32.8435L30.0245 4.4225L20.8697 10.0627L36.2884 38.4838L9.58104 22.0758L4.28088 31.818L30.9882 48.226H0.150879V59.5065H30.9882L4.28088 75.9145L9.58104 85.6567L36.2884 69.2487L20.8697 97.6697L30.0245 103.31L45.4432 74.889V107.705H56.0435V74.2298L71.7375 103.163L80.3417 97.8895L64.6477 68.8825L91.9057 85.6567L97.2059 75.9145L70.4985 59.5065H101.336V48.226Z" fill="url(#paint0_linear_5923_95)"/>
<defs>
<linearGradient id="paint0_linear_5923_95" x1="50.7434" y1="0.0274963" x2="50.7434" y2="107.705" gradientUnits="userSpaceOnUse">
<stop stop-color="#0E78F9"/>
<stop offset="0.94" stop-color="#559BFC"/>
<stop offset="1" stop-color="#A4C1FF"/>
</linearGradient>
</defs>
</svg>
