<svg width="413" height="262" viewBox="0 0 413 262" fill="none" xmlns="http://www.w3.org/2000/svg">
<path d="M169.881 151.979V79.3878H182.408V151.979H169.881ZM289.926 102.608H301.903V108.615C304.45 103.78 310.369 101.216 315.463 101.216C321.796 101.216 326.889 104.146 329.23 109.42C332.878 103.414 337.834 101.216 343.96 101.216C352.495 101.216 360.687 106.71 360.687 119.968V151.979H348.572V122.679C348.572 117.405 346.094 113.376 340.381 113.376C335.012 113.376 331.845 117.771 331.845 123.118V151.979H319.455V122.679C319.455 117.405 316.909 113.376 311.264 113.376C305.826 113.376 302.591 117.698 302.591 123.118V151.979H290.064V102.608H289.926ZM210.699 153.444C196.588 153.444 186.401 142.31 186.401 127.367C186.401 112.643 196.588 101.216 210.699 101.216C224.947 101.216 234.997 112.717 234.997 127.367C234.997 142.163 224.81 153.444 210.699 153.444ZM210.699 113.303C203.402 113.303 197.483 119.602 197.483 127.367C197.483 135.131 203.402 141.431 210.699 141.431C217.995 141.431 223.846 135.131 223.915 127.367C223.846 119.529 217.995 113.303 210.699 113.303ZM261.773 153.444C247.662 153.444 237.475 142.31 237.475 127.367C237.475 112.643 247.662 101.216 261.773 101.216C276.022 101.216 286.071 112.717 286.071 127.367C286.071 142.163 275.815 153.444 261.773 153.444ZM261.773 113.083C254.408 113.083 248.419 119.456 248.419 127.293C248.419 135.131 254.408 141.504 261.773 141.504C269.138 141.504 275.127 135.131 275.127 127.293C275.058 119.456 269.138 113.083 261.773 113.083Z" fill="white"/>
<path d="M97.7434 131.175C89.7587 131.175 83.3572 124.29 83.3572 115.866C83.3572 107.442 89.8275 100.557 97.7434 100.557C105.659 100.557 112.13 107.442 112.13 115.866C112.13 124.29 105.728 131.175 97.7434 131.175ZM148.336 110.226H117.499L144.206 93.818L138.906 84.0758L112.198 100.484L127.617 72.0627L118.462 66.4225L103.044 94.8435V62.0275H92.4432V94.8435L77.0245 66.4225L67.8697 72.0627L83.2884 100.484L56.581 84.0758L51.2809 93.818L77.9882 110.226H47.1509V121.506H77.9882L51.2809 137.915L56.581 147.657L83.2884 131.249L67.8697 159.67L77.0245 165.31L92.4432 136.889V169.705H103.044V136.23L118.738 165.163L127.342 159.89L111.648 130.883L138.906 147.657L144.206 137.915L117.499 121.506H148.336V110.226Z" fill="url(#paint0_linear_5923_92)"/>
<defs>
<linearGradient id="paint0_linear_5923_92" x1="97.7434" y1="62.0275" x2="97.7434" y2="169.705" gradientUnits="userSpaceOnUse">
<stop stop-color="#0E78F9"/>
<stop offset="1" stop-color="#A4C1FF"/>
</linearGradient>
</defs>
</svg>
