<svg width="auto" height="auto" viewBox="0 0 192 75" fill="none" xmlns="http://www.w3.org/2000/svg">
<path d="M0.880615 72.9785V0.387756H13.4083V72.9785H0.880615ZM120.926 23.608H132.903V29.6145C135.45 24.78 141.369 22.2163 146.463 22.2163C152.796 22.2163 157.889 25.1463 160.23 30.4203C163.878 24.4138 168.834 22.2163 174.96 22.2163C183.495 22.2163 191.687 27.71 191.687 40.9683V72.9785H179.572V43.6785C179.572 38.4045 177.094 34.3758 171.381 34.3758C166.012 34.3758 162.845 38.7708 162.845 44.118V72.9785H150.455V43.6785C150.455 38.4045 147.909 34.3758 142.264 34.3758C136.826 34.3758 133.591 38.6975 133.591 44.118V72.9785H121.064V23.608H120.926ZM41.6988 74.4435C27.588 74.4435 17.4006 63.3095 17.4006 48.3665C17.4006 33.6433 27.588 22.2163 41.6988 22.2163C55.9473 22.2163 65.9969 33.7165 65.9969 48.3665C65.9969 63.163 55.8096 74.4435 41.6988 74.4435ZM41.6988 34.3025C34.4025 34.3025 28.4828 40.602 28.4828 48.3665C28.4828 56.131 34.4025 62.4305 41.6988 62.4305C48.9951 62.4305 54.8459 56.131 54.9148 48.3665C54.8459 40.5288 48.9951 34.3025 41.6988 34.3025ZM92.7731 74.4435C78.6623 74.4435 68.4749 63.3095 68.4749 48.3665C68.4749 33.6433 78.6623 22.2163 92.7731 22.2163C107.022 22.2163 117.071 33.7165 117.071 48.3665C117.071 63.163 106.815 74.4435 92.7731 74.4435ZM92.7731 34.0828C85.4079 34.0828 79.4194 40.4555 79.4194 48.2933C79.4194 56.131 85.4079 62.5038 92.7731 62.5038C100.138 62.5038 106.127 56.131 106.127 48.2933C106.058 40.4555 100.138 34.0828 92.7731 34.0828Z" fill="white"/>
</svg>
