<svg width="auto" height="auto" viewBox="0 0 695 240" fill="none" xmlns="http://www.w3.org/2000/svg">
<path d="M271.689 200.459V38.539H299.468V200.459H271.689ZM537.88 90.334H564.438V103.732C570.086 92.9482 583.212 87.2295 594.507 87.2295C608.549 87.2295 619.844 93.7652 625.034 105.529C633.123 92.1313 644.113 87.2295 657.697 87.2295C676.623 87.2295 694.787 99.4839 694.787 129.058V200.459H667.923V135.103C667.923 123.339 662.429 114.352 649.76 114.352C637.855 114.352 630.834 124.156 630.834 136.083V200.459H603.36V135.103C603.36 123.339 597.712 114.352 585.196 114.352C573.138 114.352 565.965 123.992 565.965 136.083V200.459H538.186V90.334H537.88ZM362.2 203.727C330.91 203.727 308.321 178.892 308.321 145.56C308.321 112.719 330.91 87.2295 362.2 87.2295C393.795 87.2295 416.079 112.882 416.079 145.56C416.079 178.565 393.49 203.727 362.2 203.727ZM362.2 114.189C346.021 114.189 332.895 128.241 332.895 145.56C332.895 162.88 346.021 176.931 362.2 176.931C378.379 176.931 391.353 162.88 391.506 145.56C391.353 128.077 378.379 114.189 362.2 114.189ZM475.454 203.727C444.164 203.727 421.574 178.892 421.574 145.56C421.574 112.719 444.164 87.2295 475.454 87.2295C507.048 87.2295 529.333 112.882 529.333 145.56C529.333 178.565 506.591 203.727 475.454 203.727ZM475.454 113.699C459.122 113.699 445.843 127.914 445.843 145.397C445.843 162.88 459.122 177.095 475.454 177.095C491.785 177.095 505.064 162.88 505.064 145.397C504.912 127.914 491.785 113.699 475.454 113.699Z" fill="white"/>
<path d="M112.216 154.122C94.5059 154.122 80.3071 138.776 80.3071 120C80.3071 101.224 94.6586 85.8776 112.216 85.8776C129.774 85.8776 144.125 101.224 144.125 120C144.125 138.776 129.927 154.122 112.216 154.122ZM224.432 107.429H156.034L215.272 70.8571L203.516 49.1429L144.278 85.7143L178.477 22.3673L158.171 9.79592L123.972 73.1429V0H100.46V73.1429L66.261 9.79592L45.9552 22.3673L80.1544 85.7143L20.9165 49.1429L9.16051 70.8571L68.3985 107.429H0V132.571H68.3985L9.16051 169.143L20.9165 190.857L80.1544 154.286L45.9552 217.633L66.261 230.204L100.46 166.857V240H123.972V165.388L158.782 229.878L177.867 218.122L143.057 153.469L203.516 190.857L215.272 169.143L156.034 132.571H224.432V107.429Z" fill="url(#paint0_linear_5928_96)"/>
<defs>
<linearGradient id="paint0_linear_5928_96" x1="112.216" y1="0" x2="112.216" y2="240" gradientUnits="userSpaceOnUse">
<stop stop-color="#0E78F9"/>
<stop offset="0.94" stop-color="#559BFC"/>
<stop offset="1" stop-color="#A4C1FF"/>
</linearGradient>
</defs>
</svg>
